# xmcd
#
# Track frame offsets: 
#        150
#        19700
#        40332
#        57400
#        79705
#        96147
#        110660
#        125352
#        149200
#        162005
#        196300
#
# Disc length: 2892 seconds
#
# Revision: 0
# Processed by: cddbd v1.5PL3 Copyright (c) Steve Scherf et al.
# Submitted via: ExactAudioCopy v0.90b4
#
DISCID=960b4a0b
DTITLE=Vetrhus Bluesband - Vetrhus Bluesband
DYEAR=1995
DGENRE=Rock
TTITLE0=Sweet Little Missy
TTITLE1=Dusty Road
TTITLE2=Freedom Train
TTITLE3=Low Down Blues
TTITLE4=Sing This Blues
TTITLE5=Don't Want You No More
TTITLE6=Waste Of Time
TTITLE7=Help Me
TTITLE8=Walkin' Shoes
TTITLE9=Cold Rain
TTITLE10=Wee-Wee Baby
EXTD=
EXTT0=
EXTT1=
EXTT2=
EXTT3=
EXTT4=
EXTT5=
EXTT6=
EXTT7=
EXTT8=
EXTT9=
EXTT10=
PLAYORDER=
